<?xml version="1.0" standalone="no"?>
<!DOCTYPE svg PUBLIC "-//W3C//DTD SVG 20010904//EN"
 "http://www.w3.org/TR/2001/REC-SVG-20010904/DTD/svg10.dtd">
<svg version="1.0" xmlns="http://www.w3.org/2000/svg"
 width="752.000000pt" height="752.000000pt" viewBox="0 0 752.000000 752.000000"
 preserveAspectRatio="xMidYMid meet">

<g transform="translate(0.000000,752.000000) scale(0.100000,-0.100000)"
fill="#ffffff" stroke="none">
<path d="M3539 5318 c-102 -58 -105 -208 -7 -268 71 -43 174 -18 219 52 26 42
23 131 -6 170 -48 65 -139 85 -206 46z"/>
<path d="M5037 5329 c-106 -25 -212 -112 -263 -214 -27 -55 -29 -69 -29 -170
0 -104 2 -113 32 -171 82 -157 253 -246 415 -216 219 41 355 227 326 447 -30
224 -256 377 -481 324z"/>
<path d="M3078 4590 c-525 -66 -963 -422 -1127 -916 -45 -136 -63 -236 -68
-389 -17 -495 228 -947 653 -1205 327 -199 741 -249 1105 -134 489 154 852
574 935 1082 24 144 14 392 -20 529 -44 177 -124 348 -229 493 -59 82 -231
248 -317 307 -152 103 -326 178 -502 213 -114 24 -326 33 -430 20z"/>
</g>
</svg>
